<svg xmlns="http://www.w3.org/2000/svg" viewBox="0 0 100 100">
  <defs>
    <style>
      .cls-1 {
        fill: #eb9b1e;
        fill-rule: evenodd;
      }
    </style>
  </defs>
  <path class="cls-1" d="M1373.87,3999.87h-18.75V3978a3.125,3.125,0,1,0-6.25,0v25a3.126,3.126,0,0,0,3.13,3.12h21.87A3.125,3.125,0,1,0,1373.87,3999.87Zm-65.62-31.25a9.37,9.37,0,0,1,9.37-9.37h6.25V3953h-6.25a15.616,15.616,0,0,0-15.62,15.62v6.25h6.25v-6.25Zm78.12-15.62h-6.25v6.25h6.25a9.372,9.372,0,0,1,9.38,9.37v6.25H1402v-6.25A15.618,15.618,0,0,0,1386.37,3953Zm9.38,50a43.75,43.75,0,1,0-64.7,38.41l-10.3,11.59h9.37l8.39-8.39a43.589,43.589,0,0,0,26.98,0l8.38,8.39h9.38l-10.3-11.59A43.749,43.749,0,0,0,1395.75,4003ZM1352,4040.5a37.5,37.5,0,1,1,37.5-37.5A37.5,37.5,0,0,1,1352,4040.5Z" transform="translate(-1302 -3953)"/>
</svg>
