<svg xmlns="http://www.w3.org/2000/svg" viewBox="0 0 100 99.97">
  <defs>
    <style>
      .cls-1 {
        fill: #eb9b1e;
        fill-rule: evenodd;
      }
    </style>
  </defs>
  <path class="cls-1" d="M902.86,3989.52l42.425,20.37c3.749,1.88,5.366,1.88,9.428,0l42.423-20.37c3.124-1.56,3.224-8.17,0-10.06l-42.423-23.92c-3.334-2.11-5.679-2-9.428,0l-42.425,23.92C899.631,3981.68,899.528,3987.63,902.86,3989.52ZM950,3959.6l43.331,24.89L950,4003.99l-43.331-19.5Zm-47.138,51.25,42.425,20.37c3.749,1.89,5.366,1.89,9.428,0l42.423-20.37c2.093-1.04,2.859-5.94,2.859-8.58-2.728,1.46-6.59,3.54-6.666,3.56L950,4027.16l-43.331-21.33c0.148,0.09-3.834-1.83-6.666-3.56C900,4004.85,900.608,4009.58,902.86,4010.85ZM950,4048.49l-43.331-21.33c0.148,0.1-3.834-1.83-6.666-3.56,0,2.58.607,7.31,2.859,8.59l42.425,20.36c3.749,1.89,5.366,1.89,9.428,0l42.423-20.36c2.093-1.05,2.859-5.95,2.859-8.59-2.728,1.46-6.59,3.54-6.666,3.56Z" transform="translate(-900 -3954)"/>
</svg>
