<svg xmlns="http://www.w3.org/2000/svg" viewBox="0 0 100 100">
  <defs>
    <style>
      .cls-1 {
        fill: #eb9b1e;
        fill-rule: evenodd;
      }
    </style>
  </defs>
  <path class="cls-1" d="M549,3969.62a21.875,21.875,0,1,0,21.864,21.88A21.874,21.874,0,0,0,549,3969.62Zm0,37.5a15.625,15.625,0,1,1,15.617-15.62A15.616,15.616,0,0,1,549,4007.12Zm34.425,1.36a37.177,37.177,0,0,0,3.956-16.65c0-20.89-17.185-37.83-38.381-37.83s-38.38,16.94-38.38,37.83a37.177,37.177,0,0,0,3.956,16.65L499,4035.08s9.879,1.98,19.9,4.05c6.683,7.44,13.335,14.87,13.335,14.87l14.324-24.46c0.811,0.05,1.617.12,2.44,0.12s1.629-.07,2.441-0.12L565.763,4054s6.653-7.43,13.335-14.87c10.023-2.07,19.9-4.05,19.9-4.05Zm-51.93,34.17s-4.8-4.55-9.309-8.93c-6.4-1.82-12.85-3.68-12.85-3.68l9.053-15.45a38.46,38.46,0,0,0,21.384,13.93Zm17.5-19.88a31.28,31.28,0,1,1,31.2-31.28A31.245,31.245,0,0,1,549,4022.77Zm26.815,10.95c-4.512,4.38-9.31,8.93-9.31,8.93l-8.278-14.13a38.459,38.459,0,0,0,21.385-13.93l9.053,15.45S582.21,4031.9,575.814,4033.72Z" transform="translate(-499 -3954)"/>
</svg>
