<svg xmlns="http://www.w3.org/2000/svg" viewBox="0 0 100 100">
  <defs>
    <style>
      .cls-1 {
        fill: #eb9b1e;
        fill-rule: evenodd;
      }
    </style>
  </defs>
  <path class="cls-1" d="M197.7,4015.78l-7.744-4.5a37.164,37.164,0,0,0,0-14.56l7.744-4.51a6.689,6.689,0,0,0,2.419-9.1l-6.612-11.55a6.584,6.584,0,0,0-9.034-2.44l-7.822,4.55a39.522,39.522,0,0,0-12.428-7.35v-5.66a6.634,6.634,0,0,0-6.612-6.66H144.38a6.635,6.635,0,0,0-6.613,6.66v5.66a39.517,39.517,0,0,0-12.427,7.35l-7.823-4.55a6.583,6.583,0,0,0-9.033,2.44l-6.613,11.55a6.691,6.691,0,0,0,2.419,9.1l7.744,4.51a37.215,37.215,0,0,0,0,14.56l-7.744,4.5a6.7,6.7,0,0,0-2.419,9.11l6.613,11.55a6.583,6.583,0,0,0,9.033,2.44l7.823-4.55a39.491,39.491,0,0,0,12.427,7.34v5.66a6.644,6.644,0,0,0,6.613,6.67h13.226a6.643,6.643,0,0,0,6.612-6.67v-5.66a39.5,39.5,0,0,0,12.428-7.34l7.822,4.55a6.584,6.584,0,0,0,9.034-2.44l6.612-11.55A6.7,6.7,0,0,0,197.7,4015.78Zm-4.96,8.66-3.307,5.78a3.3,3.3,0,0,1-4.517,1.22l-9.186-5.35a32.936,32.936,0,0,1-18.119,10.57V4044a3.318,3.318,0,0,1-3.307,3.33h-6.613a3.317,3.317,0,0,1-3.306-3.33v-7.34a32.933,32.933,0,0,1-18.119-10.57l-9.186,5.35a3.3,3.3,0,0,1-4.518-1.22l-3.306-5.78a3.346,3.346,0,0,1,1.209-4.55l9.224-5.37a32.42,32.42,0,0,1,0-21.05l-9.224-5.36a3.355,3.355,0,0,1-1.209-4.56l3.306-5.77a3.289,3.289,0,0,1,4.518-1.22l9.186,5.34a32.918,32.918,0,0,1,18.119-10.56V3964a3.326,3.326,0,0,1,3.306-3.34H154.3a3.326,3.326,0,0,1,3.307,3.34v7.34a32.921,32.921,0,0,1,18.119,10.56l9.186-5.34a3.288,3.288,0,0,1,4.517,1.22l3.307,5.77a3.355,3.355,0,0,1-1.21,4.56l-9.224,5.36a32.4,32.4,0,0,1,0,21.05l9.224,5.37A3.345,3.345,0,0,1,192.735,4024.44Zm-41.742-37.11A16.666,16.666,0,1,0,167.526,4004,16.6,16.6,0,0,0,150.993,3987.33Zm0,26.67a10,10,0,1,1,9.919-10A9.962,9.962,0,0,1,150.993,4014Z" transform="translate(-101 -3954)"/>
</svg>
